<svg width="16" height="17" viewBox="0 0 16 17" fill="none" xmlns="http://www.w3.org/2000/svg">
<path d="M15.5 1.125C15.5 1.29076 15.4342 1.44973 15.3169 1.56694C15.1997 1.68415 15.0408 1.75 14.875 1.75H1.125C0.95924 1.75 0.800269 1.68415 0.683058 1.56694C0.565848 1.44973 0.5 1.29076 0.5 1.125C0.5 0.95924 0.565848 0.800269 0.683058 0.683058C0.800269 0.565848 0.95924 0.5 1.125 0.5H14.875C15.0408 0.5 15.1997 0.565848 15.3169 0.683058C15.4342 0.800269 15.5 0.95924 15.5 1.125ZM14.25 4.25V11.75C14.25 12.0815 14.1183 12.3995 13.8839 12.6339C13.6495 12.8683 13.3315 13 13 13H9.875C9.54348 13 9.22554 12.8683 8.99112 12.6339C8.7567 12.3995 8.625 12.0815 8.625 11.75V4.25C8.625 3.91848 8.7567 3.60054 8.99112 3.36612C9.22554 3.1317 9.54348 3 9.875 3H13C13.3315 3 13.6495 3.1317 13.8839 3.36612C14.1183 3.60054 14.25 3.91848 14.25 4.25ZM13 4.25H9.875V11.75H13V4.25ZM7.375 4.25V14.875C7.375 15.2065 7.2433 15.5245 7.00888 15.7589C6.77446 15.9933 6.45652 16.125 6.125 16.125H3C2.66848 16.125 2.35054 15.9933 2.11612 15.7589C1.8817 15.5245 1.75 15.2065 1.75 14.875V4.25C1.75 3.91848 1.8817 3.60054 2.11612 3.36612C2.35054 3.1317 2.66848 3 3 3H6.125C6.45652 3 6.77446 3.1317 7.00888 3.36612C7.2433 3.60054 7.375 3.91848 7.375 4.25ZM6.125 4.25H3V14.875H6.125V4.25Z" fill="black" fill-opacity="0.4"/>
</svg>
