<svg width="28" height="28" viewBox="0 0 28 28" fill="none" xmlns="http://www.w3.org/2000/svg">
<path d="M7.00008 22.1665V11.6665C7.00008 9.80999 7.73758 8.02951 9.05033 6.71676C10.3631 5.404 12.1436 4.6665 14.0001 4.6665C15.8566 4.6665 17.6371 5.404 18.9498 6.71676C20.2626 8.02951 21.0001 9.80999 21.0001 11.6665V22.1665M7.00008 22.1665H21.0001M7.00008 22.1665H4.66675M21.0001 22.1665H23.3334M12.8334 25.6665H15.1667" stroke="#27D4C1" stroke-width="2" stroke-linecap="round" stroke-linejoin="round"/>
<path d="M14.0002 4.66659C14.6445 4.66659 15.1668 4.14425 15.1668 3.49992C15.1668 2.85559 14.6445 2.33325 14.0002 2.33325C13.3558 2.33325 12.8335 2.85559 12.8335 3.49992C12.8335 4.14425 13.3558 4.66659 14.0002 4.66659Z" stroke="#27D4C1" stroke-width="2"/>
</svg>
