<svg width="28" height="28" viewBox="0 0 28 28" fill="none" xmlns="http://www.w3.org/2000/svg">
<path d="M14 24.5C16.0767 24.5 18.1068 23.8842 19.8335 22.7304C21.5602 21.5767 22.906 19.9368 23.7007 18.0182C24.4955 16.0996 24.7034 13.9884 24.2982 11.9516C23.8931 9.91476 22.8931 8.04383 21.4246 6.57538C19.9562 5.10693 18.0852 4.1069 16.0484 3.70176C14.0116 3.29661 11.9004 3.50455 9.98182 4.29927C8.0632 5.09399 6.42332 6.4398 5.26957 8.16652C4.11581 9.89323 3.5 11.9233 3.5 14C3.5 15.736 3.92 17.3728 4.66667 18.8148L3.5 24.5L9.18517 23.3333C10.6272 24.08 12.2652 24.5 14 24.5Z" stroke="#27D4C1" stroke-width="2" stroke-linecap="round" stroke-linejoin="round"/>
</svg>
