<svg width="28" height="28" viewBox="0 0 28 28" fill="none" xmlns="http://www.w3.org/2000/svg">
<path d="M17.4625 4H8.5C7.125 4 6 5.08 6 6.4V25.6C6 26.92 7.125 28 8.5 28H23.5C24.875 28 26 26.92 26 25.6V12.196C26 11.56 25.7375 10.948 25.2625 10.504L19.225 4.708C18.7625 4.252 18.125 4 17.4625 4ZM16 13.6C17.375 13.6 18.5 14.68 18.5 16C18.5 17.32 17.375 18.4 16 18.4C14.625 18.4 13.5 17.32 13.5 16C13.5 14.68 14.625 13.6 16 13.6ZM21 23.2H11V22.516C11 21.544 11.6 20.68 12.525 20.296C13.6211 19.8368 14.8041 19.5997 16 19.5997C17.1959 19.5997 18.3789 19.8368 19.475 20.296C19.9279 20.4818 20.3138 20.7913 20.585 21.186C20.8561 21.5807 21.0004 22.0432 21 22.516V23.2Z" fill="#27D4C1"/>
</svg>
