<svg width="18" height="18" viewBox="0 0 18 18" fill="none" xmlns="http://www.w3.org/2000/svg">
<path fill-rule="evenodd" clip-rule="evenodd" d="M11.3333 10.6667C12.4384 10.6667 13.4982 11.1057 14.2796 11.8871C15.061 12.6685 15.5 13.7283 15.5 14.8334V16.5001C15.5 16.7211 15.4122 16.9331 15.2559 17.0893C15.0996 17.2456 14.8877 17.3334 14.6667 17.3334C14.4457 17.3334 14.2337 17.2456 14.0774 17.0893C13.9211 16.9331 13.8333 16.7211 13.8333 16.5001V14.8334C13.8333 14.1704 13.5699 13.5345 13.1011 13.0656C12.6323 12.5968 11.9964 12.3334 11.3333 12.3334H4.66667C4.00363 12.3334 3.36774 12.5968 2.8989 13.0656C2.43006 13.5345 2.16667 14.1704 2.16667 14.8334V16.5001C2.16667 16.7211 2.07887 16.9331 1.92259 17.0893C1.76631 17.2456 1.55435 17.3334 1.33333 17.3334C1.11232 17.3334 0.900358 17.2456 0.744078 17.0893C0.587797 16.9331 0.5 16.7211 0.5 16.5001V14.8334C0.5 13.7283 0.938987 12.6685 1.72039 11.8871C2.50179 11.1057 3.5616 10.6667 4.66667 10.6667H11.3333ZM15.845 6.56758C15.9946 6.41654 16.1963 6.32839 16.4088 6.32118C16.6213 6.31397 16.8285 6.38825 16.988 6.5288C17.1475 6.66936 17.2473 6.86557 17.2668 7.07727C17.2864 7.28897 17.2244 7.50015 17.0933 7.66758L17.0233 7.74675L14.6667 10.1026C14.5232 10.2461 14.3323 10.3323 14.1297 10.345C13.9272 10.3577 13.727 10.2961 13.5667 10.1717L13.4883 10.1026L12.31 8.92425C12.159 8.77463 12.0708 8.57294 12.0636 8.36046C12.0564 8.14798 12.1307 7.94077 12.2712 7.78126C12.4118 7.62175 12.608 7.522 12.8197 7.50241C13.0314 7.48283 13.2426 7.5449 13.41 7.67591L13.4883 7.74508L14.0775 8.33508L15.845 6.56675V6.56758ZM8 0.666748C9.10507 0.666748 10.1649 1.10573 10.9463 1.88714C11.7277 2.66854 12.1667 3.72835 12.1667 4.83341C12.1667 5.93848 11.7277 6.99829 10.9463 7.77969C10.1649 8.56109 9.10507 9.00008 8 9.00008C6.89493 9.00008 5.83512 8.56109 5.05372 7.77969C4.27232 6.99829 3.83333 5.93848 3.83333 4.83341C3.83333 3.72835 4.27232 2.66854 5.05372 1.88714C5.83512 1.10573 6.89493 0.666748 8 0.666748ZM8 2.33341C7.6717 2.33341 7.34661 2.39808 7.04329 2.52372C6.73998 2.64935 6.46438 2.8335 6.23223 3.06565C6.00009 3.29779 5.81594 3.57339 5.6903 3.87671C5.56466 4.18002 5.5 4.50511 5.5 4.83341C5.5 5.16172 5.56466 5.48681 5.6903 5.79012C5.81594 6.09344 6.00009 6.36904 6.23223 6.60118C6.46438 6.83333 6.73998 7.01748 7.04329 7.14311C7.34661 7.26875 7.6717 7.33341 8 7.33341C8.66304 7.33341 9.29893 7.07002 9.76777 6.60118C10.2366 6.13234 10.5 5.49646 10.5 4.83341C10.5 4.17037 10.2366 3.53449 9.76777 3.06565C9.29893 2.59681 8.66304 2.33341 8 2.33341Z" fill="black" fill-opacity="0.4"/>
</svg>
