<svg width="28" height="28" viewBox="0 0 28 28" fill="none" xmlns="http://www.w3.org/2000/svg">
<path d="M24.6668 11.3333C24.6668 10.9797 24.5263 10.6406 24.2762 10.3905C24.0262 10.1405 23.6871 10 23.3334 10C22.9798 10 22.6407 10.1405 22.3906 10.3905C22.1406 10.6406 22.0001 10.9797 22.0001 11.3333H24.6668ZM6.00011 11.3333C6.00011 10.9797 5.85963 10.6406 5.60958 10.3905C5.35953 10.1405 5.0204 10 4.66677 10C4.31315 10 3.97401 10.1405 3.72397 10.3905C3.47392 10.6406 3.33344 10.9797 3.33344 11.3333H6.00011ZM25.0574 14.9427C25.3089 15.1856 25.6457 15.3199 25.9953 15.3169C26.3449 15.3139 26.6793 15.1736 26.9265 14.9264C27.1737 14.6792 27.314 14.3448 27.317 13.9952C27.32 13.6456 27.1857 13.3088 26.9428 13.0573L25.0574 14.9427ZM14.0001 2.00001L14.9428 1.05734C14.6927 0.807382 14.3537 0.666962 14.0001 0.666962C13.6466 0.666962 13.3075 0.807382 13.0574 1.05734L14.0001 2.00001ZM1.05744 13.0573C0.930095 13.1803 0.828518 13.3275 0.75864 13.4901C0.688761 13.6528 0.651979 13.8278 0.650441 14.0048C0.648903 14.1818 0.682638 14.3574 0.749679 14.5213C0.816721 14.6851 0.915725 14.834 1.04091 14.9592C1.16611 15.0844 1.31497 15.1834 1.47884 15.2504C1.6427 15.3175 1.81827 15.3512 1.99531 15.3497C2.17235 15.3481 2.34731 15.3114 2.50998 15.2415C2.67265 15.1716 2.81978 15.07 2.94277 14.9427L1.05744 13.0573ZM7.33344 27.3333H20.6668V24.6667H7.33344V27.3333ZM24.6668 23.3333V11.3333H22.0001V23.3333H24.6668ZM6.00011 23.3333V11.3333H3.33344V23.3333H6.00011ZM26.9428 13.0573L14.9428 1.05734L13.0574 2.94268L25.0574 14.9427L26.9428 13.0573ZM13.0574 1.05734L1.05744 13.0573L2.94277 14.9427L14.9428 2.94268L13.0574 1.05734ZM20.6668 27.3333C21.7276 27.3333 22.7451 26.9119 23.4952 26.1618C24.2453 25.4116 24.6668 24.3942 24.6668 23.3333H22.0001C22.0001 23.687 21.8596 24.0261 21.6096 24.2762C21.3595 24.5262 21.0204 24.6667 20.6668 24.6667V27.3333ZM7.33344 24.6667C6.97982 24.6667 6.64068 24.5262 6.39063 24.2762C6.14058 24.0261 6.00011 23.687 6.00011 23.3333H3.33344C3.33344 24.3942 3.75487 25.4116 4.50501 26.1618C5.25516 26.9119 6.27257 27.3333 7.33344 27.3333V24.6667Z" fill="#27D4C1"/>
</svg>
