<svg width="24" height="24" viewBox="0 0 24 24" fill="none" xmlns="http://www.w3.org/2000/svg">
<path d="M12.0001 21C13.963 20.9996 15.872 20.3574 17.4361 19.1713C19.0002 17.9853 20.1336 16.3204 20.6637 14.4304C21.1938 12.5404 21.0914 10.5289 20.3722 8.70249C19.653 6.87606 18.3564 5.33484 16.68 4.31369C15.0036 3.29254 13.0393 2.84747 11.0864 3.0463C9.1336 3.24513 7.29931 4.07695 5.8631 5.41501C4.42689 6.75306 3.46751 8.52398 3.13116 10.4579C2.79482 12.3918 3.09995 14.3826 4.00007 16.127L3.00007 21L7.87307 20C9.10907 20.639 10.5131 21 12.0001 21Z" stroke="black" stroke-opacity="0.4" stroke-linecap="round" stroke-linejoin="round"/>
<path d="M7.5 12H7.51V12.01H7.5V12ZM12 12H12.01V12.01H12V12ZM16.5 12H16.51V12.01H16.5V12Z" stroke="black" stroke-opacity="0.4" stroke-width="1.5" stroke-linejoin="round"/>
</svg>
