<svg width="21" height="20" viewBox="0 0 21 20" fill="none" xmlns="http://www.w3.org/2000/svg">
<path d="M7.66659 18.75L6.08325 16.0833L3.08325 15.4167L3.37492 12.3333L1.33325 10L3.37492 7.66667L3.08325 4.58333L6.08325 3.91667L7.66659 1.25L10.4999 2.45833L13.3333 1.25L14.9166 3.91667L17.9166 4.58333L17.6249 7.66667L19.6666 10L17.6249 12.3333L17.9166 15.4167L14.9166 16.0833L13.3333 18.75L10.4999 17.5417L7.66659 18.75ZM8.37492 16.625L10.4999 15.7083L12.6666 16.625L13.8333 14.625L16.1249 14.0833L15.9166 11.75L17.4583 10L15.9166 8.20833L16.1249 5.875L13.8333 5.375L12.6249 3.375L10.4999 4.29167L8.33325 3.375L7.16659 5.375L4.87492 5.875L5.08325 8.20833L3.54159 10L5.08325 11.75L4.87492 14.125L7.16659 14.625L8.37492 16.625ZM9.62492 12.9583L14.3333 8.25L13.1666 7.04167L9.62492 10.5833L7.83325 8.83333L6.66659 10L9.62492 12.9583Z" fill="black"/>
</svg>
