<svg width="21" height="20" viewBox="0 0 21 20" fill="none" xmlns="http://www.w3.org/2000/svg">
<g clip-path="url(#clip0_35_684)">
<path fill-rule="evenodd" clip-rule="evenodd" d="M13.8333 11.6667C14.9384 11.6667 15.9982 12.1057 16.7796 12.8871C17.561 13.6685 18 14.7283 18 15.8334V17.5001C18 17.7211 17.9122 17.9331 17.7559 18.0893C17.5996 18.2456 17.3877 18.3334 17.1667 18.3334C16.9457 18.3334 16.7337 18.2456 16.5774 18.0893C16.4211 17.9331 16.3333 17.7211 16.3333 17.5001V15.8334C16.3333 15.1704 16.0699 14.5345 15.6011 14.0656C15.1323 13.5968 14.4964 13.3334 13.8333 13.3334H7.16667C6.50363 13.3334 5.86774 13.5968 5.3989 14.0656C4.93006 14.5345 4.66667 15.1704 4.66667 15.8334V17.5001C4.66667 17.7211 4.57887 17.9331 4.42259 18.0893C4.26631 18.2456 4.05435 18.3334 3.83333 18.3334C3.61232 18.3334 3.40036 18.2456 3.24408 18.0893C3.0878 17.9331 3 17.7211 3 17.5001V15.8334C3 14.7283 3.43899 13.6685 4.22039 12.8871C5.00179 12.1057 6.0616 11.6667 7.16667 11.6667H13.8333ZM18.345 7.56758C18.4946 7.41654 18.6963 7.32839 18.9088 7.32118C19.1213 7.31397 19.3285 7.38825 19.488 7.5288C19.6475 7.66936 19.7473 7.86557 19.7668 8.07727C19.7864 8.28897 19.7244 8.50015 19.5933 8.66758L19.5233 8.74675L17.1667 11.1026C17.0232 11.2461 16.8323 11.3323 16.6297 11.345C16.4272 11.3577 16.227 11.2961 16.0667 11.1717L15.9883 11.1026L14.81 9.92425C14.659 9.77463 14.5708 9.57294 14.5636 9.36046C14.5564 9.14798 14.6307 8.94077 14.7712 8.78126C14.9118 8.62175 15.108 8.522 15.3197 8.50241C15.5314 8.48283 15.7426 8.5449 15.91 8.67591L15.9883 8.74508L16.5775 9.33508L18.345 7.56675V7.56758ZM10.5 1.66675C11.6051 1.66675 12.6649 2.10573 13.4463 2.88714C14.2277 3.66854 14.6667 4.72835 14.6667 5.83341C14.6667 6.93848 14.2277 7.99829 13.4463 8.77969C12.6649 9.56109 11.6051 10.0001 10.5 10.0001C9.39493 10.0001 8.33512 9.56109 7.55372 8.77969C6.77232 7.99829 6.33333 6.93848 6.33333 5.83341C6.33333 4.72835 6.77232 3.66854 7.55372 2.88714C8.33512 2.10573 9.39493 1.66675 10.5 1.66675ZM10.5 3.33341C10.1717 3.33341 9.84661 3.39808 9.54329 3.52372C9.23998 3.64935 8.96438 3.8335 8.73223 4.06565C8.50009 4.29779 8.31594 4.57339 8.1903 4.87671C8.06466 5.18002 8 5.50511 8 5.83341C8 6.16172 8.06466 6.48681 8.1903 6.79012C8.31594 7.09344 8.50009 7.36904 8.73223 7.60118C8.96438 7.83333 9.23998 8.01748 9.54329 8.14311C9.84661 8.26875 10.1717 8.33341 10.5 8.33341C11.163 8.33341 11.7989 8.07002 12.2678 7.60118C12.7366 7.13234 13 6.49646 13 5.83341C13 5.17037 12.7366 4.53449 12.2678 4.06565C11.7989 3.59681 11.163 3.33341 10.5 3.33341Z" fill="black"/>
</g>
<defs>
<clipPath id="clip0_35_684">
<rect width="20" height="20" fill="white" transform="translate(0.5)"/>
</clipPath>
</defs>
</svg>
