<svg width="28" height="28" viewBox="0 0 28 28" fill="none" xmlns="http://www.w3.org/2000/svg">
<path d="M3.39022 20.4225L6.22639 4.33763C6.27951 4.03579 6.39157 3.74737 6.55617 3.48884C6.72078 3.23031 6.9347 3.00675 7.18573 2.83091C7.43675 2.65507 7.71996 2.53041 8.01917 2.46405C8.31838 2.39769 8.62773 2.39092 8.92956 2.44413L22.7172 4.87663C23.3266 4.98418 23.8683 5.32939 24.2232 5.83632C24.5781 6.34326 24.7171 6.9704 24.6096 7.5798L21.7734 23.6646C21.7203 23.9665 21.6082 24.2549 21.4436 24.5134C21.279 24.772 21.0651 24.9955 20.8141 25.1714C20.563 25.3472 20.2798 25.4719 19.9806 25.5382C19.6814 25.6046 19.3721 25.6113 19.0702 25.5581L5.28256 23.1256C4.67317 23.0181 4.13145 22.6729 3.77658 22.1659C3.4217 21.659 3.28273 21.0319 3.39022 20.4225Z" stroke="#27D4C1" stroke-width="2"/>
<path d="M10.4171 7.44556L19.6093 9.06606M9.6063 12.0411L18.7985 13.6627M8.79663 16.6366L14.5413 17.6504" stroke="#27D4C1" stroke-width="2" stroke-linecap="round"/>
</svg>
