<svg width="25" height="30" viewBox="0 0 25 30" fill="none" xmlns="http://www.w3.org/2000/svg">
<path d="M3.16667 22.0001H21.8333V12.7081C21.8333 7.53075 17.6547 3.33341 12.5 3.33341C7.34533 3.33341 3.16667 7.53075 3.16667 12.7081V22.0001ZM12.5 0.666748C19.1267 0.666748 24.5 6.05742 24.5 12.7081V24.6667H0.5V12.7081C0.5 6.05742 5.87333 0.666748 12.5 0.666748ZM9.16667 26.0001H15.8333C15.8333 26.8841 15.4821 27.732 14.857 28.3571C14.2319 28.9822 13.3841 29.3334 12.5 29.3334C11.6159 29.3334 10.7681 28.9822 10.143 28.3571C9.51786 27.732 9.16667 26.8841 9.16667 26.0001Z" fill="black" fill-opacity="0.4"/>
</svg>
