<svg width="24" height="30" viewBox="0 0 24 30" fill="none" xmlns="http://www.w3.org/2000/svg">
<path d="M2.66667 22H21.3333V12.708C21.3333 7.53066 17.1547 3.33332 12 3.33332C6.84533 3.33332 2.66667 7.53066 2.66667 12.708V22ZM12 0.666656C18.6267 0.666656 24 6.05732 24 12.708V24.6667H0V12.708C0 6.05732 5.37333 0.666656 12 0.666656ZM8.66667 26H15.3333C15.3333 26.884 14.9821 27.7319 14.357 28.357C13.7319 28.9821 12.8841 29.3333 12 29.3333C11.1159 29.3333 10.2681 28.9821 9.64298 28.357C9.01786 27.7319 8.66667 26.884 8.66667 26Z" fill="black" fill-opacity="0.4"/>
</svg>
