<svg width="20" height="20" viewBox="0 0 20 20" fill="none" xmlns="http://www.w3.org/2000/svg">
<g clip-path="url(#clip0_309_468)">
<path fill-rule="evenodd" clip-rule="evenodd" d="M9 0.500001C9.10725 0.499831 9.21171 0.534151 9.29796 0.597894C9.38421 0.661638 9.44768 0.751425 9.479 0.854001L11.407 7.187L17.172 9.294C17.2671 9.32883 17.3493 9.3917 17.4079 9.47428C17.4664 9.55687 17.4985 9.65529 17.5 9.75653C17.5014 9.85776 17.472 9.95704 17.4158 10.0412C17.3595 10.1254 17.2791 10.1905 17.185 10.228L11.458 12.503L9.479 19.143C9.44815 19.2461 9.38488 19.3364 9.29859 19.4007C9.21229 19.4649 9.10758 19.4996 9 19.4996C8.89242 19.4996 8.7877 19.4649 8.70141 19.4007C8.61512 19.3364 8.55185 19.2461 8.521 19.143L6.542 12.503L0.814999 10.228C0.720941 10.1905 0.640471 10.1254 0.584233 10.0412C0.527995 9.95704 0.498639 9.85776 0.500048 9.75653C0.501457 9.65529 0.533565 9.55687 0.592124 9.47428C0.650684 9.3917 0.732935 9.32883 0.827999 9.294L6.593 7.187L8.522 0.854001C8.55327 0.751589 8.61658 0.66192 8.70263 0.598192C8.78868 0.534465 8.89292 0.500045 9 0.500001ZM9 2.716L7.477 7.716C7.45442 7.7901 7.41494 7.85793 7.36166 7.91416C7.30838 7.97039 7.24277 8.01346 7.17 8.04L2.403 9.784L7.137 11.664C7.20714 11.692 7.27003 11.7355 7.32095 11.7913C7.37187 11.847 7.40949 11.9136 7.431 11.986L9.001 17.25L10.569 11.986C10.5905 11.9136 10.6281 11.847 10.6791 11.7913C10.73 11.7355 10.7929 11.692 10.863 11.664L15.597 9.784L10.83 8.042C10.7572 8.01546 10.6916 7.97238 10.6383 7.91616C10.5851 7.85993 10.5456 7.7921 10.523 7.718L9 2.716Z" fill="black"/>
<path d="M16.7499 19.1199C16.6499 19.1199 16.5599 19.0399 16.5499 18.9399C16.3699 17.1199 16.2299 16.5399 14.5599 16.3799C14.4599 16.3699 14.3799 16.2799 14.3799 16.1799C14.3799 16.0799 14.4599 15.9899 14.5599 15.9799C16.2699 15.8199 16.3699 15.3799 16.5499 13.5599C16.5499 13.4599 16.6499 13.3799 16.7499 13.3799C16.8499 13.3799 16.9399 13.4599 16.9499 13.5599C17.1299 15.3799 17.2399 15.8199 18.9399 15.9799C19.0399 15.9899 19.1199 16.0799 19.1199 16.1799C19.1199 16.2799 19.0399 16.3699 18.9399 16.3799C17.2599 16.5399 17.1299 17.1199 16.9499 18.9499C16.9499 19.0499 16.8599 19.1299 16.7499 19.1299V19.1199Z" fill="black"/>
</g>
<defs>
<clipPath id="clip0_309_468">
<rect width="20" height="20" fill="white"/>
</clipPath>
</defs>
</svg>
