<svg width="20" height="20" viewBox="0 0 20 20" fill="none" xmlns="http://www.w3.org/2000/svg">
<g clip-path="url(#clip0_35_80)">
<path fill-rule="evenodd" clip-rule="evenodd" d="M13.3333 11.6667C14.4384 11.6667 15.4982 12.1057 16.2796 12.8871C17.061 13.6685 17.5 14.7283 17.5 15.8334V17.5001C17.5 17.7211 17.4122 17.9331 17.2559 18.0893C17.0996 18.2456 16.8877 18.3334 16.6667 18.3334C16.4457 18.3334 16.2337 18.2456 16.0774 18.0893C15.9211 17.9331 15.8333 17.7211 15.8333 17.5001V15.8334C15.8333 15.1704 15.5699 14.5345 15.1011 14.0656C14.6323 13.5968 13.9964 13.3334 13.3333 13.3334H6.66667C6.00363 13.3334 5.36774 13.5968 4.8989 14.0656C4.43006 14.5345 4.16667 15.1704 4.16667 15.8334V17.5001C4.16667 17.7211 4.07887 17.9331 3.92259 18.0893C3.76631 18.2456 3.55435 18.3334 3.33333 18.3334C3.11232 18.3334 2.90036 18.2456 2.74408 18.0893C2.5878 17.9331 2.5 17.7211 2.5 17.5001V15.8334C2.5 14.7283 2.93899 13.6685 3.72039 12.8871C4.50179 12.1057 5.5616 11.6667 6.66667 11.6667H13.3333ZM17.845 7.56758C17.9946 7.41654 18.1963 7.32839 18.4088 7.32118C18.6213 7.31397 18.8285 7.38825 18.988 7.5288C19.1475 7.66936 19.2473 7.86557 19.2668 8.07727C19.2864 8.28897 19.2244 8.50015 19.0933 8.66758L19.0233 8.74675L16.6667 11.1026C16.5232 11.2461 16.3323 11.3323 16.1297 11.345C15.9272 11.3577 15.727 11.2961 15.5667 11.1717L15.4883 11.1026L14.31 9.92425C14.159 9.77463 14.0708 9.57294 14.0636 9.36046C14.0564 9.14798 14.1307 8.94077 14.2712 8.78126C14.4118 8.62175 14.608 8.522 14.8197 8.50241C15.0314 8.48283 15.2426 8.5449 15.41 8.67591L15.4883 8.74508L16.0775 9.33508L17.845 7.56675V7.56758ZM10 1.66675C11.1051 1.66675 12.1649 2.10573 12.9463 2.88714C13.7277 3.66854 14.1667 4.72835 14.1667 5.83341C14.1667 6.93848 13.7277 7.99829 12.9463 8.77969C12.1649 9.56109 11.1051 10.0001 10 10.0001C8.89493 10.0001 7.83512 9.56109 7.05372 8.77969C6.27232 7.99829 5.83333 6.93848 5.83333 5.83341C5.83333 4.72835 6.27232 3.66854 7.05372 2.88714C7.83512 2.10573 8.89493 1.66675 10 1.66675ZM10 3.33341C9.6717 3.33341 9.34661 3.39808 9.04329 3.52372C8.73998 3.64935 8.46438 3.8335 8.23223 4.06565C8.00009 4.29779 7.81594 4.57339 7.6903 4.87671C7.56466 5.18002 7.5 5.50511 7.5 5.83341C7.5 6.16172 7.56466 6.48681 7.6903 6.79012C7.81594 7.09344 8.00009 7.36904 8.23223 7.60118C8.46438 7.83333 8.73998 8.01748 9.04329 8.14311C9.34661 8.26875 9.6717 8.33341 10 8.33341C10.663 8.33341 11.2989 8.07002 11.7678 7.60118C12.2366 7.13234 12.5 6.49646 12.5 5.83341C12.5 5.17037 12.2366 4.53449 11.7678 4.06565C11.2989 3.59681 10.663 3.33341 10 3.33341Z" fill="black" fill-opacity="0.4"/>
</g>
<defs>
<clipPath id="clip0_35_80">
<rect width="20" height="20" fill="white"/>
</clipPath>
</defs>
</svg>
