<svg width="24" height="24" viewBox="0 0 24 24" fill="none" xmlns="http://www.w3.org/2000/svg">
<path d="M21.3975 10.1474L16.8975 14.6474C16.7909 14.7467 16.6498 14.8008 16.5041 14.7983C16.3584 14.7957 16.2193 14.7367 16.1163 14.6336C16.0132 14.5305 15.9542 14.3915 15.9516 14.2458C15.949 14.1001 16.0031 13.959 16.1025 13.8524L19.6416 10.3124H15.4687C13.5975 10.3108 11.7789 10.9318 10.2994 12.0775C8.81983 13.2232 7.76344 14.8284 7.29656 16.6405C7.25927 16.785 7.16611 16.9087 7.03759 16.9845C6.90907 17.0603 6.75571 17.0819 6.61125 17.0446C6.46679 17.0073 6.34306 16.9141 6.26729 16.7856C6.19151 16.6571 6.16989 16.5037 6.20719 16.3593C6.73642 14.3057 7.93366 12.4865 9.61038 11.1881C11.2871 9.88965 13.3481 9.18582 15.4687 9.18738H19.6434L16.1025 5.64739C16.0031 5.54075 15.949 5.39972 15.9516 5.25399C15.9542 5.10827 16.0132 4.96923 16.1163 4.86617C16.2193 4.76311 16.3584 4.70407 16.5041 4.7015C16.6498 4.69893 16.7909 4.75302 16.8975 4.85238L21.3975 9.35239C21.5028 9.45785 21.562 9.60082 21.562 9.74988C21.562 9.89895 21.5028 10.0419 21.3975 10.1474ZM18 19.6874H3.75C3.70027 19.6874 3.65258 19.6676 3.61742 19.6325C3.58225 19.5973 3.5625 19.5496 3.5625 19.4999V8.24988C3.5625 8.1007 3.50324 7.95763 3.39775 7.85214C3.29226 7.74665 3.14918 7.68738 3 7.68738C2.85082 7.68738 2.70774 7.74665 2.60225 7.85214C2.49676 7.95763 2.4375 8.1007 2.4375 8.24988V19.4999C2.4375 19.848 2.57578 20.1818 2.82192 20.428C3.06806 20.6741 3.4019 20.8124 3.75 20.8124H18C18.1492 20.8124 18.2923 20.7531 18.3977 20.6476C18.5032 20.5421 18.5625 20.3991 18.5625 20.2499C18.5625 20.1007 18.5032 19.9576 18.3977 19.8521C18.2923 19.7466 18.1492 19.6874 18 19.6874Z" fill="black" fill-opacity="0.4"/>
</svg>
