<svg width="16" height="16" viewBox="0 0 16 16" fill="none" xmlns="http://www.w3.org/2000/svg">
<path d="M8 0C12.4183 0 16 3.58204 16 8.0008C16 12.4188 12.4175 16 8 16C3.58168 16.0008 0 12.4188 0 8.0008C0 3.58204 3.58168 0 8 0ZM8 1.19988C7.10083 1.19013 6.20865 1.35882 5.3751 1.69621C4.54155 2.03359 3.78319 2.53296 3.1439 3.16542C2.50461 3.79787 1.9971 4.55085 1.65073 5.38077C1.30436 6.2107 1.12601 7.10108 1.12601 8.0004C1.12601 8.89972 1.30436 9.7901 1.65073 10.62C1.9971 11.4499 2.50461 12.2029 3.1439 12.8354C3.78319 13.4678 4.54155 13.9672 5.3751 14.3046C6.20865 14.642 7.10083 14.8107 8 14.8009C9.79066 14.7815 11.5014 14.0565 12.7607 12.7832C14.0201 11.51 14.7265 9.79134 14.7265 8.0004C14.7265 6.20946 14.0201 4.49081 12.7607 3.21757C11.5014 1.94434 9.79066 1.2193 8 1.19988ZM5.17017 10.227C5.50682 10.6556 5.93654 11.0019 6.42681 11.2399C6.91708 11.4778 7.45505 11.6011 8 11.6004C8.54436 11.6011 9.08175 11.478 9.57157 11.2405C10.0614 11.003 10.4908 10.6572 10.8274 10.2294C10.8763 10.1676 10.9368 10.116 11.0056 10.0775C11.0744 10.0391 11.15 10.0146 11.2283 10.0054C11.3065 9.99628 11.3858 10.0026 11.4616 10.0241C11.5374 10.0455 11.6083 10.0817 11.6701 10.1306C11.7319 10.1794 11.7835 10.24 11.8219 10.3088C11.8603 10.3776 11.8848 10.4532 11.894 10.5315C11.9031 10.6097 11.8968 10.689 11.8753 10.7648C11.8539 10.8406 11.8177 10.9115 11.7688 10.9733C11.32 11.5434 10.7475 12.004 10.0946 12.3205C9.44174 12.637 8.72553 12.8011 8 12.8003C7.27341 12.801 6.55618 12.6365 5.90255 12.3191C5.24892 12.0018 4.67601 11.5399 4.22715 10.9685C4.17842 10.9066 4.14235 10.8357 4.12102 10.7598C4.09969 10.6839 4.09351 10.6046 4.10283 10.5264C4.11215 10.4481 4.13679 10.3724 4.17535 10.3037C4.2139 10.235 4.26561 10.1745 4.32753 10.1258C4.38945 10.077 4.46037 10.041 4.53622 10.0196C4.61208 9.99831 4.69139 9.99213 4.76964 10.0014C4.84788 10.0108 4.92353 10.0354 4.99225 10.074C5.06097 10.1125 5.12143 10.1643 5.17017 10.2262V10.227ZM5.60048 5.40106C5.7341 5.39728 5.86713 5.42033 5.99168 5.46886C6.11624 5.51739 6.2298 5.59041 6.32565 5.6836C6.4215 5.77678 6.49769 5.88824 6.54972 6.01139C6.60175 6.13454 6.62856 6.26687 6.62856 6.40056C6.62856 6.53425 6.60175 6.66658 6.54972 6.78973C6.49769 6.91288 6.4215 7.02434 6.32565 7.11752C6.2298 7.21071 6.11624 7.28373 5.99168 7.33226C5.86713 7.38078 5.7341 7.40384 5.60048 7.40006C5.34032 7.3927 5.09328 7.28417 4.91186 7.09753C4.73045 6.91089 4.62896 6.66085 4.62896 6.40056C4.62896 6.14027 4.73045 5.89023 4.91186 5.70359C5.09328 5.51695 5.34032 5.40842 5.60048 5.40106ZM10.3995 5.40106C10.5331 5.39728 10.6662 5.42033 10.7907 5.46886C10.9153 5.51739 11.0288 5.59041 11.1247 5.6836C11.2205 5.77678 11.2967 5.88824 11.3488 6.01139C11.4008 6.13454 11.4276 6.26687 11.4276 6.40056C11.4276 6.53425 11.4008 6.66658 11.3488 6.78973C11.2967 6.91288 11.2205 7.02434 11.1247 7.11752C11.0288 7.21071 10.9153 7.28373 10.7907 7.33226C10.6662 7.38078 10.5331 7.40384 10.3995 7.40006C10.1394 7.3927 9.89232 7.28417 9.7109 7.09753C9.52949 6.91089 9.42799 6.66085 9.42799 6.40056C9.42799 6.14027 9.52949 5.89023 9.7109 5.70359C9.89232 5.51695 10.1394 5.40842 10.3995 5.40106Z" fill="#27D4C1"/>
</svg>
