<svg width="18" height="18" viewBox="0 0 18 18" fill="none" xmlns="http://www.w3.org/2000/svg">
<path d="M12.2 7.39995C13.0836 7.39995 13.8 6.68361 13.8 5.79995C13.8 4.9163 13.0836 4.19995 12.2 4.19995C11.3163 4.19995 10.6 4.9163 10.6 5.79995C10.6 6.68361 11.3163 7.39995 12.2 7.39995Z" stroke="#27D4C1" stroke-width="1.5"/>
<path d="M1 9.39991L2.4016 8.17351C2.75291 7.86637 3.2078 7.70418 3.67418 7.71978C4.14056 7.73537 4.58359 7.92759 4.9136 8.25751L8.3456 11.6895C8.61193 11.9558 8.96364 12.1196 9.33884 12.1521C9.71404 12.1846 10.0887 12.0836 10.3968 11.8671L10.636 11.6991C11.0805 11.3869 11.6177 11.2348 12.1599 11.2675C12.702 11.3002 13.2171 11.5158 13.6208 11.8791L16.2 14.1999" stroke="#27D4C1" stroke-width="1.5" stroke-linecap="round"/>
<path d="M17 9C17 12.7712 17 14.6568 15.828 15.828C14.6576 17 12.7712 17 9 17C5.2288 17 3.3432 17 2.1712 15.828C1 14.6576 1 12.7712 1 9C1 5.2288 1 3.3432 2.1712 2.1712C3.344 1 5.2288 1 9 1C12.7712 1 14.6568 1 15.828 2.1712C16.6072 2.9504 16.868 4.0456 16.956 5.8" stroke="#27D4C1" stroke-width="1.5" stroke-linecap="round"/>
</svg>
