<svg width="16" height="16" viewBox="0 0 16 16" fill="none" xmlns="http://www.w3.org/2000/svg">
<path d="M13.4 0C14.786 0 15.92 1.35657 15.996 3.06514L16 3.25029V12.7497C16 14.4834 14.915 15.8994 13.547 15.9954L13.4 16H2.6C1.214 16 0.0799999 14.6434 0.00399995 12.9349L0 12.7497V3.25029C0 1.51657 1.085 0.100571 2.452 0.00457137L2.6 0H13.4ZM13.25 1.14286H2.75C1.824 1.14286 1.066 2.04914 1.004 3.19657L1 3.34743V12.6526C1 13.8194 1.72 14.7749 2.63 14.8526L2.75 14.8571H13.25C14.176 14.8571 14.934 13.9509 14.996 12.8046L15 12.6514V3.34857C15 2.18171 14.28 1.22629 13.37 1.14857L13.25 1.14286ZM4.851 4.57371C5.471 4.57371 5.999 4.68457 6.432 4.91543C6.699 5.05714 6.806 5.4 6.672 5.68229C6.60066 5.82066 6.48654 5.92346 6.35215 5.97042C6.21776 6.01738 6.07286 6.0051 5.946 5.936C5.678 5.79314 5.314 5.71657 4.851 5.71657C3.825 5.71657 3.081 6.66743 3.081 8.00229C3.081 9.28114 3.894 10.2857 4.851 10.2857C5.448 10.2857 5.853 9.88457 5.911 9.51657L5.919 9.42514V8.57257L5.54 8.57143C5.242 8.57143 5 8.31543 5 8C5 7.72 5.191 7.48571 5.443 7.43772L5.541 7.42857L6.459 7.42972C6.58139 7.42557 6.70126 7.46997 6.79824 7.55539C6.89522 7.64081 6.96333 7.76197 6.991 7.89829L7 8.00114V9.42514C7 10.4274 6.114 11.4286 4.851 11.4286C3.256 11.4286 2 9.87657 2 8.00114C2 6.08 3.177 4.57371 4.851 4.57371ZM9 4.57143C9.11703 4.57138 9.23036 4.61825 9.32026 4.70387C9.41016 4.78949 9.47093 4.90844 9.492 5.04L9.5 5.14286V10.8571C9.50023 10.9999 9.45367 11.1377 9.36949 11.2432C9.28531 11.3487 9.16961 11.4144 9.04518 11.4273C8.92074 11.4402 8.79659 11.3994 8.69717 11.3129C8.59775 11.2264 8.53026 11.1005 8.508 10.96L8.5 10.8571V5.14286C8.5 4.9913 8.55268 4.84596 8.64645 4.7388C8.74021 4.63163 8.86739 4.57143 9 4.57143ZM13.5 4.57143C13.6249 4.57117 13.7455 4.62438 13.8378 4.72058C13.9301 4.81679 13.9876 4.94901 13.9989 5.09122C14.0102 5.23344 13.9745 5.37533 13.8988 5.48895C13.8231 5.60258 13.7129 5.6797 13.59 5.70514L13.5 5.71429H12V8H13.5C13.6249 7.99974 13.7455 8.05295 13.8378 8.14915C13.9301 8.24536 13.9876 8.37759 13.9989 8.5198C14.0102 8.66201 13.9745 8.8039 13.8988 8.91752C13.8231 9.03115 13.7129 9.10827 13.59 9.13371L13.5 9.14286H12V10.8571C12.0002 10.9999 11.9537 11.1377 11.8695 11.2432C11.7853 11.3487 11.6696 11.4144 11.5452 11.4273C11.4207 11.4402 11.2966 11.3994 11.1972 11.3129C11.0977 11.2264 11.0303 11.1005 11.008 10.96L11 10.8571V5.14286C11 4.9913 11.0527 4.84596 11.1464 4.7388C11.2402 4.63163 11.3674 4.57143 11.5 4.57143H13.5Z" fill="#27D4C1"/>
</svg>
