<svg width="28" height="28" viewBox="0 0 28 28" fill="none" xmlns="http://www.w3.org/2000/svg">
<path d="M23.366 16.4431C23.3185 16.485 23.2799 16.5361 23.2525 16.5932C23.225 16.6503 23.2093 16.7123 23.2062 16.7756C23.1493 17.9577 23.052 19.1375 22.9145 20.3129C22.7348 21.8506 21.4912 23.0744 19.9395 23.2482C15.9915 23.6859 12.0073 23.6859 8.05932 23.2482C7.30574 23.1644 6.60236 22.8292 6.06262 22.2967C5.52288 21.7641 5.17826 21.0653 5.08432 20.3129C4.61655 16.3132 4.61655 12.2726 5.08432 8.27292C5.17821 7.52039 5.52279 6.82142 6.06252 6.28868C6.60224 5.75594 7.30564 5.42049 8.05932 5.33642C10.664 5.04786 13.2862 4.9496 15.9052 5.04242C16.0953 5.04825 16.2552 4.90475 16.2692 4.71575L16.3275 3.89558C16.3298 3.84755 16.3345 3.79966 16.3415 3.75208C16.3695 3.52575 16.2132 3.30175 15.9833 3.29358C13.2737 3.19669 10.5605 3.29807 7.86566 3.59692C5.51832 3.86058 3.62249 5.70858 3.34716 8.06875C2.86345 12.2041 2.86345 16.3817 3.34716 20.5171C3.62249 22.8761 5.51716 24.7252 7.86566 24.9877C11.9428 25.4393 16.0572 25.4393 20.1343 24.9877C22.4817 24.7252 24.3775 22.8761 24.6528 20.5159C24.8497 18.8319 24.9665 17.1395 25.0028 15.4444C25.0075 15.2309 24.7462 15.1259 24.598 15.2764C24.2013 15.6801 23.7907 16.0686 23.366 16.4431Z" fill="#27D4C1"/>
<path d="M9.17809 18.1418C9.05268 18.1072 8.94242 18.0317 8.86484 17.9273C8.78726 17.8229 8.74681 17.6955 8.74992 17.5654L8.81992 14.6919C8.86743 12.713 9.68683 10.8311 11.1031 9.44821C12.5194 8.06528 14.4203 7.29095 16.3998 7.29061H17.8674C17.898 6.56279 17.9396 5.83549 17.9923 5.10894L18.0716 4.02394C18.0824 3.87229 18.1325 3.72606 18.2169 3.59959C18.3013 3.47313 18.4171 3.37076 18.553 3.30253C18.6888 3.2343 18.8401 3.20255 18.9919 3.2104C19.1438 3.21824 19.291 3.26541 19.4191 3.34727C21.8352 4.89131 23.9356 6.88084 25.6083 9.20977L26.1403 9.95061C26.2114 10.0497 26.2496 10.1687 26.2496 10.2907C26.2496 10.4127 26.2114 10.5316 26.1403 10.6308L25.6083 11.3716C23.9355 13.7001 21.8351 15.6892 19.4191 17.2329C19.3147 17.2997 19.1975 17.3436 19.075 17.3619C18.9525 17.3801 18.8275 17.3723 18.7082 17.3389C18.589 17.3056 18.4781 17.2474 18.3828 17.1682C18.2876 17.089 18.2102 16.9906 18.1556 16.8794C18.1079 16.7786 18.0795 16.6698 18.0716 16.5586L17.9923 15.4724C17.9294 14.6062 17.8823 13.7388 17.8511 12.8708L17.4381 12.8078C16.1522 12.6139 14.8378 12.8154 13.6689 13.3854C12.5001 13.9555 11.5321 14.8672 10.8931 15.9998L9.84076 17.8664C9.77678 17.9796 9.67683 18.0682 9.55677 18.1181C9.43671 18.1679 9.30343 18.1763 9.17809 18.1418Z" fill="#27D4C1"/>
</svg>
