<svg width="32" height="32" viewBox="0 0 32 32" fill="none" xmlns="http://www.w3.org/2000/svg">
<path d="M13.5901 18.4098L27.9999 4M13.5901 18.4098L18.175 27.5797C18.2325 27.7051 18.3248 27.8114 18.4409 27.8859C18.557 27.9604 18.692 28 18.83 28C18.968 28 19.103 27.9604 19.2191 27.8859C19.3352 27.8114 19.4275 27.7051 19.485 27.5797L27.9999 4M13.5901 18.4098L4.42021 13.8249C4.29479 13.7674 4.18851 13.6751 4.114 13.559C4.03949 13.4429 3.99988 13.3078 3.99988 13.1699C3.99988 13.0319 4.03949 12.8968 4.114 12.7807C4.18851 12.6646 4.29479 12.5724 4.42021 12.5149L27.9999 4" stroke="black" stroke-width="2.4" stroke-linecap="round" stroke-linejoin="round"/>
</svg>
