<svg width="32" height="32" viewBox="0 0 32 32" fill="none" xmlns="http://www.w3.org/2000/svg">
<path d="M16 6.5C16.8284 6.5 17.5 5.82843 17.5 5C17.5 4.17157 16.8284 3.5 16 3.5C15.1716 3.5 14.5 4.17157 14.5 5C14.5 5.82843 15.1716 6.5 16 6.5Z" fill="black" stroke="black" stroke-width="2" stroke-linecap="round" stroke-linejoin="round"/>
<path d="M16 17.5C16.8284 17.5 17.5 16.8284 17.5 16C17.5 15.1716 16.8284 14.5 16 14.5C15.1716 14.5 14.5 15.1716 14.5 16C14.5 16.8284 15.1716 17.5 16 17.5Z" fill="black" stroke="black" stroke-width="2" stroke-linecap="round" stroke-linejoin="round"/>
<path d="M16 28.5C16.8284 28.5 17.5 27.8284 17.5 27C17.5 26.1716 16.8284 25.5 16 25.5C15.1716 25.5 14.5 26.1716 14.5 27C14.5 27.8284 15.1716 28.5 16 28.5Z" fill="black" stroke="black" stroke-width="2" stroke-linecap="round" stroke-linejoin="round"/>
</svg>
