<svg width="20" height="20" viewBox="0 0 20 20" fill="none" xmlns="http://www.w3.org/2000/svg">
<path d="M7.16659 18.75L5.58325 16.0833L2.58325 15.4167L2.87492 12.3333L0.833252 10L2.87492 7.66667L2.58325 4.58333L5.58325 3.91667L7.16659 1.25L9.99992 2.45833L12.8333 1.25L14.4166 3.91667L17.4166 4.58333L17.1249 7.66667L19.1666 10L17.1249 12.3333L17.4166 15.4167L14.4166 16.0833L12.8333 18.75L9.99992 17.5417L7.16659 18.75ZM7.87492 16.625L9.99992 15.7083L12.1666 16.625L13.3333 14.625L15.6249 14.0833L15.4166 11.75L16.9583 10L15.4166 8.20833L15.6249 5.875L13.3333 5.375L12.1249 3.375L9.99992 4.29167L7.83325 3.375L6.66659 5.375L4.37492 5.875L4.58325 8.20833L3.04159 10L4.58325 11.75L4.37492 14.125L6.66659 14.625L7.87492 16.625ZM9.12492 12.9583L13.8333 8.25L12.6666 7.04167L9.12492 10.5833L7.33325 8.83333L6.16659 10L9.12492 12.9583Z" fill="#FDA420"/>
</svg>
